PathFileType	4	(X/Y/Z)	SUBJ94_4_walk_RCNL2025.trc
DataRate	CameraRate	NumFrames	NumMarkers	Units	OrigDataRate	OrigDataStartFrame	OrigNumFrames
100	100	5	25	mm	100	1	297
Frame#	Time	R_Shoulder			L_Shoulder			C7			J_Notch			R_Elbow			L_Elbow			R_Wrist			L_Wrist			R_Asis			L_Asis			Sacral			Thoracic			Sternum			R_Thigh_Lateral			R_Knee_Lateral			R_Shank_Lateral			R_Ankle_Lateral			R_Heel			R_Toe			L_Thigh_Lateral			L_Knee_Lateral			L_Shank_Lateral			L_Ankle_Lateral			L_Heel			L_Toe		
		X1	Y1	Z1	X2	Y2	Z2	X3	Y3	Z3	X4	Y4	Z4	X5	Y5	Z5	X6	Y6	Z6	X7	Y7	Z7	X8	Y8	Z8	X9	Y9	Z9	X10	Y10	Z10	X11	Y11	Z11	X12	Y12	Z12	X13	Y13	Z13	X14	Y14	Z14	X15	Y15	Z15	X16	Y16	Z16	X17	Y17	Z17	X18	Y18	Z18	X19	Y19	Z19	X20	Y20	Z20	X21	Y21	Z21	X22	Y22	Z22	X23	Y23	Z23	X24	Y24	Z24	X25	Y25	Z25
1	0.00000000	-1395.382446	1275.440063	-213.010818	-1442.359985	1265.146973	-592.129211	-1481.083130	1351.097534	-396.170868	-1367.739380	1260.195679	-414.608490	-1442.342529	999.474609	-111.791550	-1495.290283	977.818237	-633.969727	-1341.821045	797.347687	-124.124962	-1352.720337	794.972900	-633.644073	-1365.684692	883.913025	-271.941528	-1373.685669	870.764404	-495.046661	-1557.680786	936.350830	-386.898041	-1543.094971	1148.743652	-386.633972	-1334.569702	1066.055298	-403.213074	-1441.928833	536.247131	-204.370087	-1457.245605	442.261932	-262.822937	-1469.085327	254.592026	-234.257217	-1496.937500	55.069851	-319.689331	-1544.906860	53.399189	-364.116119	-1365.265991	39.620434	-356.523132	-1333.947144	537.726868	-574.207214	-1313.682373	449.682373	-519.452454	-1413.153198	307.298004	-578.409485	-1551.031006	154.514755	-479.860321	-1587.272461	165.181381	-428.335388	-1460.677246	70.687874	-462.434418
2	0.01000000	-1384.270142	1274.302490	-213.035339	-1432.504639	1263.921021	-591.862854	-1470.353027	1350.179932	-395.881531	-1357.297119	1259.286987	-414.472992	-1427.167969	997.937134	-111.887543	-1487.772095	977.030090	-633.381104	-1322.071655	798.651306	-126.076752	-1347.336243	792.553894	-634.144318	-1355.476929	882.700562	-271.241913	-1363.509399	870.251404	-494.213013	-1547.730591	935.519165	-385.936462	-1532.841187	1148.006958	-385.994720	-1324.273804	1065.249512	-402.964233	-1434.654663	535.431824	-204.490860	-1452.561157	441.839142	-262.881226	-1466.697510	254.425354	-234.552780	-1496.691528	55.065678	-320.083466	-1544.529663	53.743073	-364.559204	-1365.162354	39.535957	-356.624390	-1317.720093	540.614014	-573.419006	-1296.508423	452.344666	-518.926147	-1386.661499	303.691467	-577.565247	-1516.439087	143.672729	-478.826569	-1553.008789	152.135651	-427.067413	-1421.029663	66.380493	-462.133484
3	0.02000000	-1373.130249	1273.125977	-213.078094	-1422.549927	1262.652100	-591.633240	-1459.570557	1349.240967	-395.635193	-1346.782593	1258.311157	-414.334351	-1412.070312	996.388000	-112.045448	-1480.078979	976.197510	-632.822266	-1302.563293	799.928101	-128.117523	-1341.800598	790.116516	-634.661011	-1345.286743	881.509949	-270.536560	-1353.178955	869.675293	-493.421661	-1537.711304	934.566956	-385.176727	-1522.535156	1147.248779	-385.445831	-1313.944824	1064.353516	-402.686920	-1427.430542	534.647156	-204.577438	-1447.746704	441.459259	-262.944824	-1464.249268	254.308136	-234.838211	-1496.442261	55.172951	-320.494568	-1544.139771	54.223976	-365.036896	-1365.039307	39.448975	-356.734131	-1302.404297	542.870728	-572.789307	-1280.135010	454.498322	-518.506958	-1360.817505	300.176971	-576.928101	-1481.352539	133.432800	-477.943451	-1518.076416	139.684128	-425.933411	-1381.277710	62.915157	-461.961792
4	0.03000000	-1361.962646	1271.911011	-213.139221	-1412.495850	1261.340698	-591.440430	-1448.735352	1348.280640	-395.431885	-1336.195801	1257.268677	-414.192841	-1397.050293	994.827881	-112.265129	-1472.210449	975.320923	-632.293396	-1283.296692	801.178314	-130.246964	-1336.112915	787.661194	-635.194183	-1335.114014	880.341553	-269.825684	-1342.693970	869.036499	-492.672729	-1527.622437	933.495178	-384.618744	-1512.176636	1146.469604	-384.987244	-1303.582397	1063.368042	-402.381531	-1420.256714	533.893738	-204.629608	-1442.801758	441.122192	-263.013580	-1461.739380	254.240295	-235.113297	-1496.189331	55.391880	-320.922058	-1543.737549	54.842117	-365.548126	-1364.896973	39.359852	-356.851776	-1287.997681	544.497559	-572.317444	-1264.559204	456.144501	-518.193909	-1335.624634	296.757812	-576.497070	-1445.787842	123.803429	-477.212006	-1482.494507	127.837151	-424.936066	-1341.439697	60.296551	-461.917542
5	0.04000000	-1350.767090	1270.659302	-213.219025	-1402.341919	1259.987671	-591.284668	-1437.847412	1347.299805	-395.271698	-1325.536255	1256.160645	-414.049225	-1382.109009	993.258240	-112.546143	-1464.166016	974.401123	-631.794922	-1264.273926	802.402710	-132.464172	-1330.272034	785.189026	-635.744141	-1324.957153	879.195923	-269.109924	-1332.053833	868.336182	-491.966278	-1517.462524	932.306396	-384.262299	-1501.765259	1145.669800	-384.618835	-1293.185913	1062.294189	-402.049316	-1413.133179	533.173706	-204.647003	-1437.724121	440.827789	-263.087158	-1459.165405	254.221588	-235.377411	-1495.931519	55.722965	-321.364075	-1543.323486	55.598045	-366.089569	-1364.735596	39.269550	-356.976013	-1274.493286	545.497131	-572.001221	-1249.772217	457.286865	-517.983826	-1311.091553	293.442017	-576.269165	-1409.790649	114.805527	-476.634247	-1446.316772	116.620331	-424.081787	-1301.566040	58.534237	-461.996002
